# xmcd
#
# Track frame offsets:
#	150
#	19410
#	37945
#	69395
#
# Disc length: 1192 seconds
#
# Revision: 1
# Processed by: cddbd v1.4PL0 Copyright (c) Steve Scherf et al.
# Submitted via: EasyCDDAExtractor 5.0.7
#
DISCID=2b04a604
DTITLE=Macy Gray - Still
DYEAR=2000
DGENRE=Soul
TTITLE0=Still [album version]
TTITLE1=Still [X-ecutioner's remix]
TTITLE2=Attica Blues
TTITLE3=I try [from the Jo Whiley Radio 1 Session]
EXTD=
EXTT0=
EXTT1=
EXTT2=
EXTT3=
PLAYORDER=
